<svg xmlns="http://www.w3.org/2000/svg" viewBox="0 0 237 346" enable-background="new 0 0 237 346"><style type="text/css">.st0{fill:none;stroke:#010101;stroke-width:3.0757;stroke-miterlimit:10;} .st1{fill:none;stroke:#010101;stroke-width:3.0757;stroke-miterlimit:10;stroke-dasharray:8.9415,8.9417;} .st2{fill:#010101;} .st3{font-family:&apos;AbrilFatface-Regular&apos;;} .st4{font-size:25.9002px;} .st5{fill:#EEE948;} .st6{font-family:&apos;Montserrat-Regular&apos;;} .st7{font-size:71.2255px;} .st8{font-family:&apos;Dosis-Medium&apos;;} .st9{font-size:33.6702px;} .st10{font-size:41px;}</style><path class="st0" d="M225.6 5.5h4.5v4.4"/><path class="st1" d="M230.1 18.9v285.9c0 19.7-16.9 35.8-37.6 35.8h-149.9c-20.7-.1-37.6-16.1-37.6-35.8v-263.6c0-19.6 16.9-35.7 37.6-35.7h178.5"/><text transform="matrix(.992 0 0 1 77.735 49.001)"><tspan x="0" y="31.1" class="st2 st3 st4">your course</tspan></text><text transform="translate(24.738 79.097)" class="st5 st6 st7">1.</text><text transform="translate(46.755 163.437)" class="st2 st8 st9">HTML</text><text transform="translate(46.755 217.59)" class="st2 st8 st9">CSS</text><text transform="translate(46.755 269.101)" class="st2 st8 st9">Javascript</text><text transform="translate(46.755 322.355)" class="st2 st8 st9">Python</text><path class="st5" d="M28.5 153.8c-1-1-1.5-2.3-1.5-3.8s.5-2.7 1.5-3.7 2.3-1.5 3.7-1.5c1.5 0 2.7.5 3.8 1.5 1 1 1.6 2.3 1.6 3.7 0 1.5-.5 2.7-1.6 3.8-1 1-2.3 1.6-3.8 1.6-1.4 0-2.6-.5-3.7-1.6zm0 57.1c-1-1-1.5-2.3-1.5-3.8s.5-2.7 1.5-3.7 2.3-1.5 3.7-1.5c1.5 0 2.7.5 3.8 1.5 1 1 1.6 2.3 1.6 3.7 0 1.5-.5 2.7-1.6 3.8-1 1-2.3 1.6-3.8 1.6-1.4-.1-2.6-.6-3.7-1.6zm0 50.5c-1-1-1.5-2.3-1.5-3.8s.5-2.7 1.5-3.7 2.3-1.5 3.7-1.5c1.5 0 2.7.5 3.8 1.5 1 1 1.6 2.3 1.6 3.7 0 1.5-.5 2.7-1.6 3.8-1 1-2.3 1.6-3.8 1.6-1.4-.1-2.6-.6-3.7-1.6zm0 52.4c-1-1-1.5-2.3-1.5-3.8s.5-2.7 1.5-3.7 2.3-1.5 3.7-1.5c1.5 0 2.7.5 3.8 1.5 1 1 1.6 2.3 1.6 3.7 0 1.5-.5 2.7-1.6 3.8-1 1-2.3 1.6-3.8 1.6-1.4 0-2.6-.5-3.7-1.6z"/><text transform="matrix(.992 0 0 1 75.068 59.818)" class="st2 st3 st10">Choose</text></svg>