<svg xmlns="http://www.w3.org/2000/svg" viewBox="0 0 237 346" enable-background="new 0 0 237 346"><style type="text/css">.st0{fill:#010101;} .st1{font-family:&apos;Dosis-Medium&apos;;} .st2{font-size:33.4999px;} .st3{fill:none;stroke:#010101;stroke-width:3.0757;stroke-miterlimit:10;} .st4{fill:none;stroke:#010101;stroke-width:3.0757;stroke-miterlimit:10;stroke-dasharray:8.9415,8.9417;} .st5{font-family:&apos;AbrilFatface-Regular&apos;;} .st6{font-size:25.9002px;} .st7{fill:#EEE948;} .st8{font-size:41px;}</style><text transform="translate(39.335 154.429)" class="st0 st1 st2">Apps</text><text transform="translate(39.335 208.582)" class="st0 st1 st2">Websites</text><text transform="translate(39.335 260.093)" class="st0 st1 st2">Int. Graphics</text><text transform="translate(39.334 313.347)" class="st0 st1 st2">Games</text><path class="st3" d="M224.2 6.5h4.4v4.4"/><path class="st4" d="M228.6 19.9v285.9c0 19.7-16.9 35.8-37.6 35.8h-149.9c-20.7 0-37.6-16.1-37.6-35.8v-263.6c0-19.7 16.9-35.8 37.6-35.8h178.5"/><path class="st7" d="M17.1 144.8c-1-1-1.5-2.3-1.5-3.8s.5-2.7 1.5-3.7 2.3-1.5 3.7-1.5c1.5 0 2.7.5 3.8 1.5 1 1 1.6 2.3 1.6 3.7 0 1.5-.5 2.7-1.6 3.8-1 1-2.3 1.6-3.8 1.6s-2.7-.5-3.7-1.6zm0 57.1c-1-1-1.5-2.3-1.5-3.8s.5-2.7 1.5-3.7 2.3-1.5 3.7-1.5c1.5 0 2.7.5 3.8 1.5 1 1 1.6 2.3 1.6 3.7 0 1.5-.5 2.7-1.6 3.8-1 1-2.3 1.6-3.8 1.6-1.5-.1-2.7-.6-3.7-1.6zm0 50.5c-1-1-1.5-2.3-1.5-3.8s.5-2.7 1.5-3.7 2.3-1.5 3.7-1.5c1.5 0 2.7.5 3.8 1.5 1 1 1.6 2.3 1.6 3.7 0 1.5-.5 2.7-1.6 3.8-1 1-2.3 1.6-3.8 1.6-1.5-.1-2.7-.6-3.7-1.6zm0 52.4c-1-1-1.5-2.3-1.5-3.8s.5-2.7 1.5-3.7 2.3-1.5 3.7-1.5c1.5 0 2.7.5 3.8 1.5 1 1 1.6 2.3 1.6 3.7 0 1.5-.5 2.7-1.6 3.8-1 1-2.3 1.6-3.8 1.6s-2.7-.5-3.7-1.6z"/><text transform="matrix(.992 0 0 1 47.585 63.82)" class="st0 st5 st8">Create</text></svg>