<svg xmlns="http://www.w3.org/2000/svg" viewBox="0 0 237 346" enable-background="new 0 0 237 346"><style type="text/css">.st0{fill:#010101;} .st1{font-family:&apos;Dosis-Medium&apos;;} .st2{font-size:33.4999px;} .st3{fill:none;stroke:#010101;stroke-width:3.0757;stroke-miterlimit:10;} .st4{fill:none;stroke:#010101;stroke-width:3.0757;stroke-miterlimit:10;stroke-dasharray:8.9415,8.9417;} .st5{font-family:&apos;AbrilFatface-Regular&apos;;} .st6{font-size:25.9002px;} .st7{font-size:30px;} .st8{fill:#EEE948;} .st9{font-family:&apos;Montserrat-Regular&apos;;} .st10{font-size:71.2255px;} .st11{font-size:41px;}</style><text transform="translate(49.343 164.437)" class="st0 st1 st2">Begginer</text><text transform="translate(49.343 218.59)" class="st0 st1 st2">Intermediate</text><text transform="translate(49.343 270.101)" class="st0 st1 st2">Pro</text><text transform="translate(49.342 323.355)" class="st0 st1 st2">Wizard</text><path class="st3" d="M224.2 6.5h4.4v4.4"/><path class="st4" d="M228.6 19.9v285.9c0 19.7-16.9 35.8-37.6 35.8h-149.9c-20.7 0-37.6-16.1-37.6-35.8v-263.6c0-19.7 16.9-35.8 37.6-35.8h178.5"/><text transform="matrix(.992 0 0 1 76.272 44.997)"><tspan x="0" y="36" class="st0 st5 st7">your level</tspan></text><text transform="translate(14.268 80.097)" class="st8 st9 st10">3.</text><path class="st8" d="M27.1 154.8c-1-1-1.5-2.3-1.5-3.8s.5-2.7 1.5-3.7 2.3-1.5 3.7-1.5c1.5 0 2.7.5 3.8 1.5 1 1 1.6 2.3 1.6 3.7 0 1.5-.5 2.7-1.6 3.8-1 1-2.3 1.6-3.8 1.6-1.4 0-2.7-.5-3.7-1.6zm0 57.1c-1-1-1.5-2.3-1.5-3.8s.5-2.7 1.5-3.7 2.3-1.5 3.7-1.5c1.5 0 2.7.5 3.8 1.5 1 1 1.6 2.3 1.6 3.7 0 1.5-.5 2.7-1.6 3.8-1 1-2.3 1.6-3.8 1.6-1.4-.1-2.7-.6-3.7-1.6zm0 50.5c-1-1-1.5-2.3-1.5-3.8s.5-2.7 1.5-3.7 2.3-1.5 3.7-1.5c1.5 0 2.7.5 3.8 1.5 1 1 1.6 2.3 1.6 3.7 0 1.5-.5 2.7-1.6 3.8-1 1-2.3 1.6-3.8 1.6-1.4-.1-2.7-.6-3.7-1.6zm0 52.4c-1-1-1.5-2.3-1.5-3.8s.5-2.7 1.5-3.7 2.3-1.5 3.7-1.5c1.5 0 2.7.5 3.8 1.5 1 1 1.6 2.3 1.6 3.7 0 1.5-.5 2.7-1.6 3.8-1 1-2.3 1.6-3.8 1.6-1.4 0-2.7-.5-3.7-1.6z"/><text transform="matrix(.992 0 0 1 73.606 57.815)" class="st0 st5 st11">Choose</text></svg>