<svg xmlns="http://www.w3.org/2000/svg" viewBox="0 0 237 346" enable-background="new 0 0 237 346"><style type="text/css">.st0{fill:#010101;} .st1{font-family:&apos;Dosis-Medium&apos;;} .st2{font-size:33.4999px;} .st3{fill:none;stroke:#010101;stroke-width:3.0757;stroke-miterlimit:10;} .st4{fill:none;stroke:#010101;stroke-width:3.0757;stroke-miterlimit:10;stroke-dasharray:8.9415,8.9417;} .st5{font-family:&apos;AbrilFatface-Regular&apos;;} .st6{font-size:25.9002px;} .st7{fill:#EEE948;} .st8{font-size:41px;} .st9{fill:none;stroke:#010101;stroke-width:0.769;stroke-miterlimit:10;stroke-dasharray:3.823,3.823;} .st10{fill:none;stroke:#010101;stroke-width:0.603;stroke-miterlimit:10;stroke-dasharray:3.0148,3.0148;} .st11{fill:none;stroke:#010101;stroke-width:0.7057;stroke-miterlimit:10;stroke-dasharray:3.5292,3.5292;}</style><text transform="translate(39.335 154.429)" class="st0 st1 st2">Lessons</text><text transform="translate(39.335 208.582)" class="st0 st1 st2">Review</text><text transform="translate(39.335 260.093)" class="st0 st1 st2">Application</text><text transform="translate(39.334 313.347)" class="st0 st1 st2">Quizes</text><path class="st3" d="M224.2 6.5h4.4v4.4"/><path class="st4" d="M228.6 19.9v285.9c0 19.7-16.9 35.8-37.6 35.8h-149.9c-20.7 0-37.6-16.1-37.6-35.8v-263.6c0-19.7 16.9-35.8 37.6-35.8h178.5"/><path class="st7" d="M17.1 144.8c-1-1-1.5-2.3-1.5-3.8s.5-2.7 1.5-3.7 2.3-1.5 3.7-1.5c1.5 0 2.7.5 3.8 1.5 1 1 1.6 2.3 1.6 3.7 0 1.5-.5 2.7-1.6 3.8-1 1-2.3 1.6-3.8 1.6s-2.7-.5-3.7-1.6zm0 57.1c-1-1-1.5-2.3-1.5-3.8s.5-2.7 1.5-3.7 2.3-1.5 3.7-1.5c1.5 0 2.7.5 3.8 1.5 1 1 1.6 2.3 1.6 3.7 0 1.5-.5 2.7-1.6 3.8-1 1-2.3 1.6-3.8 1.6-1.5-.1-2.7-.6-3.7-1.6zm0 50.5c-1-1-1.5-2.3-1.5-3.8s.5-2.7 1.5-3.7 2.3-1.5 3.7-1.5c1.5 0 2.7.5 3.8 1.5 1 1 1.6 2.3 1.6 3.7 0 1.5-.5 2.7-1.6 3.8-1 1-2.3 1.6-3.8 1.6-1.5-.1-2.7-.6-3.7-1.6zm0 52.4c-1-1-1.5-2.3-1.5-3.8s.5-2.7 1.5-3.7 2.3-1.5 3.7-1.5c1.5 0 2.7.5 3.8 1.5 1 1 1.6 2.3 1.6 3.7 0 1.5-.5 2.7-1.6 3.8-1 1-2.3 1.6-3.8 1.6s-2.7-.5-3.7-1.6z"/><text transform="matrix(.992 0 0 1 39.579 63.82)" class="st0 st5 st8">Practice</text><text transform="translate(-278.515 91.637)" class="st7" font-family="Montserrat-Regular" font-size="39.583">Practice</text><path class="st9" d="M-102.6 116.3h-188.3c-2.5 0-4.6-2.1-4.6-4.6v-61c0-2.5 2.1-4.6 4.6-4.6h188.3c2.5 0 4.6 2.1 4.6 4.6v61.1c0 2.5-2.1 4.5-4.6 4.5z"/><path class="st10" d="M-267.5 118.3v90.5l70.8-.4m-1.5-47.5h-67.8m-1.7 50.5v90.5l67.5-.7m1.8-47.2h-67.8"/><text transform="translate(-197.202 163.503)" class="st0 st1" font-size="29.049">Lessons</text><text transform="translate(-197.202 210.461)" class="st0 st1" font-size="29.049">Review</text><text transform="translate(-197.202 255.129)" class="st0 st1" font-size="29.049">Application</text><text transform="translate(-197.202 301.515)" class="st0 st1" font-size="29.049">Quiz</text><text transform="translate(260.128 510.523)" class="st7" font-family="Montserrat-Regular" font-size="39.583">Create</text><path class="st11" d="M405.2 535.2h-157.8c-2.3 0-4.2-1.9-4.2-4.2v-61.8c0-2.3 1.9-4.2 4.2-4.2h157.8c2.3 0 4.2 1.9 4.2 4.2v61.8c0 2.3-1.9 4.2-4.2 4.2z"/><path class="st10" d="M271.2 537.2v90.5l70.7-.4m-1.5-47.6h-67.8m-1.6 50.6v90.5l67.5-.7m1.7-47.2h-67.8"/><text transform="translate(341.441 582.389)" class="st0 st1" font-size="29.049">Apps</text><text transform="translate(341.441 629.347)" class="st0 st1" font-size="29.049">Websites</text><text transform="translate(341.441 674.015)" class="st0 st1" font-size="29.049">Interactive Graphics</text><text transform="translate(341.441 720.401)" class="st0 st1" font-size="29.049">Your Future</text></svg>